<svg xmlns="http://www.w3.org/2000/svg" viewBox="0 0 32 32"><g fill="none" fill-rule="evenodd"><circle cx="16" cy="16" r="16" fill="#2775CA"/><path fill="#FFF" fill-rule="nonzero" d="M16 6.5c.414 0 .75.336.75.75v1.037c2.502.25 4.357 1.55 4.857 3.74a.75.75 0 0 1-1.46.334c-.33-1.445-1.55-2.383-3.397-2.6v4.715c3.252.77 5.14 1.87 5.14 4.65 0 2.52-1.98 4.25-5.14 4.58v1.494a.75.75 0 0 1-1.5 0v-1.47c-2.86-.16-4.91-1.53-5.48-3.98a.75.75 0 1 1 1.46-.34c.39 1.67 1.77 2.72 4.02 2.86v-5.02c-3.13-.74-4.98-1.91-4.98-4.57 0-2.43 1.91-4.14 4.98-4.43V7.25c0-.414.336-.75.75-.75Zm-.75 6.99c-1.99.23-3.48 1.1-3.48 2.92 0 1.62 1.14 2.35 3.48 2.95v-5.87Zm1.5 7.02c2.1-.27 3.64-1.16 3.64-3.01 0-1.68-1.2-2.43-3.64-3.02v6.03Z"/></g></svg>
